<svg xmlns="http://www.w3.org/2000/svg" width="1200" height="630" viewBox="0 0 1200 630">
  <defs>
    <linearGradient id="g1" x1="0" y1="0" x2="1" y2="1"><stop offset="0%" stop-color="#0b0f14"/><stop offset="100%" stop-color="#111827"/></linearGradient>
    <linearGradient id="g2" x1="0" y1="0" x2="1" y2="0"><stop offset="0%" stop-color="#e63946"/><stop offset="100%" stop-color="#00f0ff"/></linearGradient>
  </defs>
  <rect width="1200" height="630" fill="url(#g1)"/>
  <g opacity="0.12" stroke="#00f0ff" stroke-width="1"><path d="M0 80H1200M0 160H1200M0 240H1200M0 320H1200M0 400H1200M0 480H1200M0 560H1200"/><path d="M100 0V630M200 0V630M300 0V630M400 0V630M500 0V630M600 0V630M700 0V630M800 0V630M900 0V630M1000 0V630M1100 0V630"/></g>
  <rect x="750" y="160" width="340" height="310" rx="8" fill="none" stroke="url(#g2)" stroke-width="3" opacity="0.45"/>
  <rect x="770" y="180" width="300" height="20" rx="3" fill="#e63946" opacity="0.25"/>
  <rect x="770" y="210" width="240" height="20" rx="3" fill="#00f0ff" opacity="0.2"/>
  <rect x="770" y="240" width="280" height="20" rx="3" fill="#e63946" opacity="0.18"/>
  <rect x="770" y="270" width="200" height="20" rx="3" fill="#00f0ff" opacity="0.22"/>
  <rect x="770" y="300" width="260" height="20" rx="3" fill="#e63946" opacity="0.15"/>
  <circle cx="870" cy="400" r="50" fill="none" stroke="#e63946" stroke-width="4" opacity="0.5"/>
  <text x="845" y="412" font-family="Orbitron, sans-serif" font-size="28" fill="#e63946" font-weight="900">60</text>
  <text x="905" y="408" font-family="Rajdhani, sans-serif" font-size="14" fill="#00f0ff">FPS</text>
  <text x="80" y="190" font-family="Orbitron, sans-serif" font-size="64" fill="#ffffff" font-weight="900">BEST</text>
  <text x="80" y="270" font-family="Orbitron, sans-serif" font-size="64" fill="#ffffff" font-weight="900">SETTINGS</text>
  <text x="80" y="330" font-family="Orbitron, sans-serif" font-size="26" fill="#00f0ff">PC GRAPHICS + PERFORMANCE</text>
  <text x="80" y="370" font-family="Orbitron, sans-serif" font-size="26" fill="#e63946">CONTROLLER OPTIMIZATION</text>
  <text x="80" y="560" font-family="Rajdhani, sans-serif" font-size="22" fill="#ffffff" opacity="0.7">DOA6 LAST ROUND ULTIMATE GUIDE</text>
</svg>
