<svg xmlns="http://www.w3.org/2000/svg" viewBox="0 0 1200 630" width="1200" height="630">
  <defs>
    <linearGradient id="bg2" x1="0%" y1="0%" x2="100%" y2="100%">
      <stop offset="0%" style="stop-color:#08080c"/>
      <stop offset="100%" style="stop-color:#141420"/>
    </linearGradient>
  </defs>
  <rect width="1200" height="630" fill="url(#bg2)"/>
  <text x="600" y="50" text-anchor="middle" font-family="Orbitron,sans-serif" font-weight="900" font-size="20" fill="#e63946" letter-spacing="8">FULL ROSTER - OVER 30 FIGHTERS</text>
  <!-- Character cards grid -->
  <g transform="translate(40,80)">
    <g><rect width="110" height="140" rx="4" fill="#1a1a2e" stroke="rgba(230,57,70,0.3)" stroke-width="1"/><rect y="100" width="110" height="40" fill="rgba(0,0,0,0.6)"/><text x="55" y="70" text-anchor="middle" font-size="32">&#x1F977;</text><text x="55" y="125" text-anchor="middle" font-family="Orbitron" font-size="8" fill="#fff">KASUMI</text></g>
    <g transform="translate(120,0)"><rect width="110" height="140" rx="4" fill="#1a1a2e" stroke="rgba(230,57,70,0.3)" stroke-width="1"/><rect y="100" width="110" height="40" fill="rgba(0,0,0,0.6)"/><text x="55" y="70" text-anchor="middle" font-size="32">&#x1F409;</text><text x="55" y="125" text-anchor="middle" font-family="Orbitron" font-size="8" fill="#fff">HAYABUSA</text></g>
    <g transform="translate(240,0)"><rect width="110" height="140" rx="4" fill="#1a1a2e" stroke="rgba(230,57,70,0.3)" stroke-width="1"/><rect y="100" width="110" height="40" fill="rgba(0,0,0,0.6)"/><text x="55" y="70" text-anchor="middle" font-size="32">&#x1F319;</text><text x="55" y="125" text-anchor="middle" font-family="Orbitron" font-size="8" fill="#fff">AYANE</text></g>
    <g transform="translate(360,0)"><rect width="110" height="140" rx="4" fill="#1a1a2e" stroke="rgba(230,57,70,0.3)" stroke-width="1"/><rect y="100" width="110" height="40" fill="rgba(0,0,0,0.6)"/><text x="55" y="70" text-anchor="middle" font-size="32">&#x1F380;</text><text x="55" y="125" text-anchor="middle" font-family="Orbitron" font-size="8" fill="#fff">MARIE ROSE</text></g>
    <g transform="translate(480,0)"><rect width="110" height="140" rx="4" fill="#1a1a2e" stroke="rgba(230,57,70,0.3)" stroke-width="1"/><rect y="100" width="110" height="40" fill="rgba(0,0,0,0.6)"/><text x="55" y="70" text-anchor="middle" font-size="32">&#x1F94B;</text><text x="55" y="125" text-anchor="middle" font-family="Orbitron" font-size="8" fill="#fff">JANN LEE</text></g>
    <g transform="translate(600,0)"><rect width="110" height="140" rx="4" fill="#1a1a2e" stroke="rgba(230,57,70,0.3)" stroke-width="1"/><rect y="100" width="110" height="40" fill="rgba(0,0,0,0.6)"/><text x="55" y="70" text-anchor="middle" font-size="32">&#x1F44A;</text><text x="55" y="125" text-anchor="middle" font-family="Orbitron" font-size="8" fill="#fff">HITOMI</text></g>
    <g transform="translate(720,0)"><rect width="110" height="140" rx="4" fill="#1a1a2e" stroke="rgba(230,57,70,0.3)" stroke-width="1"/><rect y="100" width="110" height="40" fill="rgba(0,0,0,0.6)"/><text x="55" y="70" text-anchor="middle" font-size="32">&#x1F4AA;</text><text x="55" y="125" text-anchor="middle" font-family="Orbitron" font-size="8" fill="#fff">TINA</text></g>
    <g transform="translate(840,0)"><rect width="110" height="140" rx="4" fill="#1a1a2e" stroke="rgba(230,57,70,0.3)" stroke-width="1"/><rect y="100" width="110" height="40" fill="rgba(0,0,0,0.6)"/><text x="55" y="70" text-anchor="middle" font-size="32">&#x1F6E1;&#xFE0F;</text><text x="55" y="125" text-anchor="middle" font-family="Orbitron" font-size="8" fill="#fff">BAYMAN</text></g>
    <g transform="translate(960,0)"><rect width="110" height="140" rx="4" fill="#1a1a2e" stroke="rgba(230,57,70,0.3)" stroke-width="1"/><rect y="100" width="110" height="40" fill="rgba(0,0,0,0.6)"/><text x="55" y="70" text-anchor="middle" font-size="32">&#x1F9B5;</text><text x="55" y="125" text-anchor="middle" font-family="Orbitron" font-size="8" fill="#fff">RIG</text></g>
  </g>
  <g transform="translate(40,240)">
    <g><rect width="110" height="140" rx="4" fill="#1a1a2e" stroke="rgba(230,57,70,0.3)" stroke-width="1"/><rect y="100" width="110" height="40" fill="rgba(0,0,0,0.6)"/><text x="55" y="70" text-anchor="middle" font-size="32">&#x1F98B;</text><text x="55" y="125" text-anchor="middle" font-family="Orbitron" font-size="8" fill="#fff">HELENA</text></g>
    <g transform="translate(120,0)"><rect width="110" height="140" rx="4" fill="#1a1a2e" stroke="rgba(230,57,70,0.3)" stroke-width="1"/><rect y="100" width="110" height="40" fill="rgba(0,0,0,0.6)"/><text x="55" y="70" text-anchor="middle" font-size="32">&#x1F921;</text><text x="55" y="125" text-anchor="middle" font-family="Orbitron" font-size="8" fill="#fff">ZACK</text></g>
    <g transform="translate(240,0)"><rect width="110" height="140" rx="4" fill="#1a1a2e" stroke="rgba(230,57,70,0.3)" stroke-width="1"/><rect y="100" width="110" height="40" fill="rgba(0,0,0,0.6)"/><text x="55" y="70" text-anchor="middle" font-size="32">&#x1F43B;</text><text x="55" y="125" text-anchor="middle" font-family="Orbitron" font-size="8" fill="#fff">BASS</text></g>
    <g transform="translate(360,0)"><rect width="110" height="140" rx="4" fill="#1a1a2e" stroke="rgba(230,57,70,0.3)" stroke-width="1"/><rect y="100" width="110" height="40" fill="rgba(0,0,0,0.6)"/><text x="55" y="70" text-anchor="middle" font-size="32">&#x1F94A;</text><text x="55" y="125" text-anchor="middle" font-family="Orbitron" font-size="8" fill="#fff">MILA</text></g>
    <g transform="translate(480,0)"><rect width="110" height="140" rx="4" fill="#1a1a2e" stroke="rgba(230,57,70,0.3)" stroke-width="1"/><rect y="100" width="110" height="40" fill="rgba(0,0,0,0.6)"/><text x="55" y="70" text-anchor="middle" font-size="32">&#x1F40D;</text><text x="55" y="125" text-anchor="middle" font-family="Orbitron" font-size="8" fill="#fff">CHRISTIE</text></g>
    <g transform="translate(600,0)"><rect width="110" height="140" rx="4" fill="#1a1a2e" stroke="rgba(230,57,70,0.3)" stroke-width="1"/><rect y="100" width="110" height="40" fill="rgba(0,0,0,0.6)"/><text x="55" y="70" text-anchor="middle" font-size="32">&#x1F338;</text><text x="55" y="125" text-anchor="middle" font-family="Orbitron" font-size="8" fill="#fff">KOKORO</text></g>
    <g transform="translate(720,0)"><rect width="110" height="140" rx="4" fill="#1a1a2e" stroke="rgba(230,57,70,0.3)" stroke-width="1"/><rect y="100" width="110" height="40" fill="rgba(0,0,0,0.6)"/><text x="55" y="70" text-anchor="middle" font-size="32">&#x26EA;&#xFE0F;</text><text x="55" y="125" text-anchor="middle" font-family="Orbitron" font-size="8" fill="#fff">ELIOT</text></g>
    <g transform="translate(840,0)"><rect width="110" height="140" rx="4" fill="#1a1a2e" stroke="rgba(230,57,70,0.3)" stroke-width="1"/><rect y="100" width="110" height="40" fill="rgba(0,0,0,0.6)"/><text x="55" y="70" text-anchor="middle" font-size="32">&#x26A1;</text><text x="55" y="125" text-anchor="middle" font-family="Orbitron" font-size="8" fill="#fff">HAYATE</text></g>
    <g transform="translate(960,0)"><rect width="110" height="140" rx="4" fill="#1a1a2e" stroke="rgba(230,57,70,0.3)" stroke-width="1"/><rect y="100" width="110" height="40" fill="rgba(0,0,0,0.6)"/><text x="55" y="70" text-anchor="middle" font-size="32">&#x1F451;</text><text x="55" y="125" text-anchor="middle" font-family="Orbitron" font-size="8" fill="#fff">LISA</text></g>
  </g>
  <text x="600" y="460" text-anchor="middle" font-family="Exo 2,sans-serif" font-size="16" fill="#6e6e82">S-Tier through B-Tier | All DLC Characters Included</text>
  <rect x="400" y="490" width="400" height="3" rx="1" fill="url(#red)" opacity="0.6"/>
  <text x="600" y="530" text-anchor="middle" font-family="Orbitron,sans-serif" font-weight="700" font-size="14" fill="#00f0ff" letter-spacing="3">NINTENDO SWITCH 2 EDITION</text>
</svg>